<?xml version="1.0" encoding="UTF-8" standalone="no"?>
<!-- Created with Inkscape (http://www.inkscape.org/) -->

<svg
   width="8.5in"
   height="11in"
   viewBox="0 0 215.9 279.4"
   version="1.1"
   id="svg5"
   inkscape:version="1.3.2 (091e20e, 2023-11-25)"
   sodipodi:docname="Fig_FSMs_Concurrent.svg"
   inkscape:export-filename="/home/nikhil/git_clones/WOSET2021_Paper/Presentation/Parallel_Bubblesort.png"
   inkscape:export-xdpi="96"
   inkscape:export-ydpi="96"
   xmlns:inkscape="http://www.inkscape.org/namespaces/inkscape"
   xmlns:sodipodi="http://sodipodi.sourceforge.net/DTD/sodipodi-0.dtd"
   xmlns="http://www.w3.org/2000/svg"
   xmlns:svg="http://www.w3.org/2000/svg"
   xmlns:rdf="http://www.w3.org/1999/02/22-rdf-syntax-ns#"
   xmlns:cc="http://creativecommons.org/ns#"
   xmlns:dc="http://purl.org/dc/elements/1.1/">
  <metadata
     id="metadata95">
    <rdf:RDF>
      <cc:Work
         rdf:about="">
        <dc:format>image/svg+xml</dc:format>
        <dc:type
           rdf:resource="http://purl.org/dc/dcmitype/StillImage" />
      </cc:Work>
    </rdf:RDF>
  </metadata>
  <sodipodi:namedview
     id="namedview7"
     pagecolor="#ffffff"
     bordercolor="#999999"
     borderopacity="1"
     inkscape:pageshadow="0"
     inkscape:pageopacity="0"
     inkscape:pagecheckerboard="0"
     inkscape:document-units="mm"
     showgrid="true"
     units="in"
     inkscape:zoom="2.6149187"
     inkscape:cx="381.27381"
     inkscape:cy="188.91601"
     inkscape:window-width="2496"
     inkscape:window-height="1501"
     inkscape:window-x="38"
     inkscape:window-y="61"
     inkscape:window-maximized="0"
     inkscape:current-layer="layer1"
     inkscape:snap-global="false"
     inkscape:showpageshadow="2"
     inkscape:deskcolor="#d1d1d1">
    <inkscape:grid
       id="grid1"
       units="in"
       originx="0"
       originy="0"
       spacingx="0.254"
       spacingy="0.254"
       empcolor="#0099e5"
       empopacity="0.30196078"
       color="#646464"
       opacity="0.14901961"
       empspacing="10"
       dotted="true"
       gridanglex="30"
       gridanglez="30"
       visible="true" />
  </sodipodi:namedview>
  <defs
     id="defs2">
    <rect
       x="232.79355"
       y="346.98026"
       width="55.497196"
       height="33.15098"
       id="rect14" />
    <marker
       inkscape:isstock="true"
       inkscape:stockid="Arrow2Lend"
       orient="auto"
       refY="0"
       refX="0"
       id="marker1275"
       style="overflow:visible"
       viewBox="0 0 12.48079482 9.5264135"
       markerWidth="12.48079491"
       markerHeight="9.52641357"
       preserveAspectRatio="xMidYMid">
      <path
         id="path1273"
         style="fill:context-stroke;fill-rule:evenodd;stroke:#000000;stroke-width:0.625;stroke-linejoin:round;stroke-opacity:1"
         d="M 8.7185878,4.0337352 -2.2072895,0.01601326 8.7185884,-4.0017078 c -1.7454984,2.3720609 -1.7354408,5.6174519 -6e-7,8.035443 z"
         transform="matrix(-1.1,0,0,-1.1,-1.1,0)" />
    </marker>
    <marker
       inkscape:isstock="true"
       inkscape:stockid="Arrow2Lend"
       orient="auto"
       refY="0"
       refX="0"
       id="marker1151"
       style="overflow:visible"
       viewBox="0 0 12.48079482 9.5264135"
       markerWidth="12.07018388"
       markerHeight="9.213"
       preserveAspectRatio="xMidYMid">
      <path
         id="path1149"
         style="fill:context-stroke;fill-rule:evenodd;stroke:#000000;stroke-width:0.625;stroke-linejoin:round;stroke-opacity:1"
         d="M 8.7185878,4.0337352 -2.2072895,0.01601326 8.7185884,-4.0017078 c -1.7454984,2.3720609 -1.7354408,5.6174519 -6e-7,8.035443 z"
         transform="matrix(-1.1,0,0,-1.1,-1.1,0)" />
    </marker>
    <marker
       inkscape:isstock="true"
       inkscape:stockid="Arrow2Mend"
       orient="auto"
       refY="0"
       refX="0"
       id="marker2878"
       style="overflow:visible">
      <path
         id="path2876"
         style="fill:context-stroke;fill-rule:evenodd;stroke:#000000;stroke-width:0.625;stroke-linejoin:round;stroke-opacity:1"
         d="M 8.7185878,4.0337352 -2.2072895,0.01601326 8.7185884,-4.0017078 c -1.7454984,2.3720609 -1.7354408,5.6174519 -6e-7,8.035443 z"
         transform="scale(-0.6)" />
    </marker>
    <marker
       style="overflow:visible"
       id="marker1866"
       refX="0"
       refY="0"
       orient="auto"
       inkscape:stockid="Arrow2Mend"
       inkscape:isstock="true">
      <path
         transform="scale(-0.6)"
         d="M 8.7185878,4.0337352 -2.2072895,0.01601326 8.7185884,-4.0017078 c -1.7454984,2.3720609 -1.7354408,5.6174519 -6e-7,8.035443 z"
         style="fill:context-stroke;fill-rule:evenodd;stroke:#000000;stroke-width:0.625;stroke-linejoin:round;stroke-opacity:1"
         id="path1864" />
    </marker>
    <marker
       inkscape:isstock="true"
       inkscape:stockid="Arrow2Mend"
       orient="auto"
       refY="0"
       refX="0"
       id="marker1538"
       style="overflow:visible">
      <path
         id="path1536"
         style="fill:context-stroke;fill-rule:evenodd;stroke:#000000;stroke-width:0.625;stroke-linejoin:round;stroke-opacity:1"
         d="M 8.7185878,4.0337352 -2.2072895,0.01601326 8.7185884,-4.0017078 c -1.7454984,2.3720609 -1.7354408,5.6174519 -6e-7,8.035443 z"
         transform="scale(-0.6)" />
    </marker>
    <marker
       inkscape:isstock="true"
       inkscape:stockid="Arrow1Mend"
       orient="auto"
       refY="0"
       refX="0"
       id="marker1351"
       style="overflow:visible">
      <path
         id="path1349"
         d="M 0,0 5,-5 -12.5,0 5,5 Z"
         style="fill:context-stroke;fill-rule:evenodd;stroke:#000000;stroke-width:1pt;stroke-opacity:1"
         transform="matrix(-0.4,0,0,-0.4,-4,0)" />
    </marker>
    <marker
       inkscape:isstock="true"
       inkscape:stockid="Arrow1Mstart"
       orient="auto"
       refY="0"
       refX="0"
       id="marker1263"
       style="overflow:visible">
      <path
         id="path1261"
         d="M 0,0 5,-5 -12.5,0 5,5 Z"
         style="fill:context-stroke;fill-rule:evenodd;stroke:#000000;stroke-width:1pt;stroke-opacity:1"
         transform="matrix(0.4,0,0,0.4,4,0)" />
    </marker>
    <marker
       inkscape:isstock="true"
       inkscape:stockid="Arrow1Mend"
       orient="auto"
       refY="0"
       refX="0"
       id="marker1169"
       style="overflow:visible">
      <path
         id="path1167"
         d="M 0,0 5,-5 -12.5,0 5,5 Z"
         style="fill:context-stroke;fill-rule:evenodd;stroke:#000000;stroke-width:1pt;stroke-opacity:1"
         transform="matrix(-0.4,0,0,-0.4,-4,0)" />
    </marker>
    <marker
       inkscape:isstock="true"
       inkscape:stockid="Arrow1Mstart"
       orient="auto"
       refY="0"
       refX="0"
       id="marker1093"
       style="overflow:visible">
      <path
         id="path1091"
         d="M 0,0 5,-5 -12.5,0 5,5 Z"
         style="fill:context-stroke;fill-rule:evenodd;stroke:#000000;stroke-width:1pt;stroke-opacity:1"
         transform="matrix(0.4,0,0,0.4,4,0)" />
    </marker>
    <marker
       style="overflow:visible"
       id="Arrow1Mstart"
       refX="0"
       refY="0"
       orient="auto"
       inkscape:stockid="Arrow1Mstart"
       inkscape:isstock="true">
      <path
         transform="matrix(0.4,0,0,0.4,4,0)"
         style="fill:context-stroke;fill-rule:evenodd;stroke:context-stroke;stroke-width:1pt"
         d="M 0,0 5,-5 -12.5,0 5,5 Z"
         id="path2702" />
    </marker>
    <marker
       style="overflow:visible"
       id="marker2957"
       refX="0"
       refY="0"
       orient="auto"
       inkscape:stockid="Arrow2Mend"
       inkscape:isstock="true"
       viewBox="0 0 6.55552674 4.8212658"
       markerWidth="6.5555266"
       markerHeight="4.8212657"
       preserveAspectRatio="xMidYMid">
      <path
         transform="scale(-0.6)"
         d="M 8.7185878,4.0337352 -2.2072895,0.01601326 8.7185884,-4.0017078 c -1.7454984,2.3720609 -1.7354408,5.6174519 -6e-7,8.035443 z"
         style="fill:context-stroke;fill-rule:evenodd;stroke-width:0.625;stroke-linejoin:round"
         id="path2723" />
    </marker>
    <marker
       style="overflow:visible"
       id="Arrow2Lstart"
       refX="0"
       refY="0"
       orient="auto"
       inkscape:stockid="Arrow2Lstart"
       inkscape:isstock="true"
       viewBox="0 0 12.01846569 8.8389873"
       markerWidth="12.01846576"
       markerHeight="8.83898735"
       preserveAspectRatio="xMidYMid">
      <path
         transform="matrix(1.1,0,0,1.1,1.1,0)"
         d="M 8.7185878,4.0337352 -2.2072895,0.01601326 8.7185884,-4.0017078 c -1.7454984,2.3720609 -1.7354408,5.6174519 -6e-7,8.035443 z"
         style="fill:context-stroke;fill-rule:evenodd;stroke-width:0.625;stroke-linejoin:round"
         id="path4796" />
    </marker>
    <marker
       style="overflow:visible"
       id="marker113098"
       refX="0"
       refY="0"
       orient="auto"
       inkscape:stockid="Arrow2Mend"
       inkscape:isstock="true"
       viewBox="0 0 6.55552674 4.8212658"
       markerWidth="6.5555266"
       markerHeight="4.8212657"
       preserveAspectRatio="xMidYMid">
      <path
         transform="scale(-0.6)"
         d="M 8.7185878,4.0337352 -2.2072895,0.01601326 8.7185884,-4.0017078 c -1.7454984,2.3720609 -1.7354408,5.6174519 -6e-7,8.035443 z"
         style="fill:context-stroke;fill-rule:evenodd;stroke-width:0.625;stroke-linejoin:round"
         id="path113096" />
    </marker>
    <marker
       style="overflow:visible"
       id="Arrow2Mend"
       refX="0"
       refY="0"
       orient="auto"
       inkscape:stockid="Arrow2Mend"
       inkscape:isstock="true"
       viewBox="0 0 6.55552674 4.8212658"
       markerWidth="6.55552674"
       markerHeight="4.8212658"
       preserveAspectRatio="xMidYMid">
      <path
         transform="scale(-0.6)"
         d="M 8.7185878,4.0337352 -2.2072895,0.01601326 8.7185884,-4.0017078 c -1.7454984,2.3720609 -1.7354408,5.6174519 -6e-7,8.035443 z"
         style="fill:context-stroke;fill-rule:evenodd;stroke-width:0.625;stroke-linejoin:round"
         id="path28079" />
    </marker>
    <marker
       style="overflow:visible"
       id="marker971"
       refX="0"
       refY="0"
       orient="auto"
       inkscape:stockid="Arrow2Mend"
       inkscape:isstock="true"
       viewBox="0 0 6.55552674 4.8212658"
       markerWidth="6.55552674"
       markerHeight="4.8212658"
       preserveAspectRatio="xMidYMid">
      <path
         transform="scale(-0.6)"
         d="M 8.7185878,4.0337352 -2.2072895,0.01601326 8.7185884,-4.0017078 c -1.7454984,2.3720609 -1.7354408,5.6174519 -6e-7,8.035443 z"
         style="fill:context-stroke;fill-rule:evenodd;stroke-width:0.625;stroke-linejoin:round"
         id="path969" />
    </marker>
    <marker
       inkscape:isstock="true"
       inkscape:stockid="Arrow2Lend"
       orient="auto"
       refY="0"
       refX="0"
       id="marker1095"
       style="overflow:visible"
       viewBox="0 0 12.48079482 9.5264135"
       markerWidth="12.48079491"
       markerHeight="9.52641357"
       preserveAspectRatio="xMidYMid">
      <path
         inkscape:connector-curvature="0"
         id="path1093"
         style="fill:context-stroke;fill-rule:evenodd;stroke:#000000;stroke-width:0.625;stroke-linejoin:round;stroke-opacity:1"
         d="M 8.7185878,4.0337352 -2.2072895,0.01601326 8.7185884,-4.0017078 c -1.7454984,2.3720609 -1.7354408,5.6174519 -6e-7,8.035443 z"
         transform="matrix(-1.1,0,0,-1.1,-1.1,0)" />
    </marker>
    <marker
       style="overflow:visible"
       id="marker6260"
       refX="0"
       refY="0"
       orient="auto"
       inkscape:stockid="Arrow2Lend"
       inkscape:isstock="true"
       viewBox="0 0 12.48079482 9.5264135"
       markerWidth="12.48079491"
       markerHeight="9.52641357"
       preserveAspectRatio="xMidYMid">
      <path
         transform="matrix(-1.1,0,0,-1.1,-1.1,0)"
         d="M 8.7185878,4.0337352 -2.2072895,0.01601326 8.7185884,-4.0017078 c -1.7454984,2.3720609 -1.7354408,5.6174519 -6e-7,8.035443 z"
         style="fill:context-stroke;fill-rule:evenodd;stroke:#000000;stroke-width:0.625;stroke-linejoin:round;stroke-opacity:1"
         id="path6258"
         inkscape:connector-curvature="0" />
    </marker>
    <marker
       inkscape:isstock="true"
       inkscape:stockid="Arrow2Lend"
       orient="auto"
       refY="0"
       refX="0"
       id="marker1151-7"
       style="overflow:visible"
       viewBox="0 0 12.480795 9.5264135"
       markerWidth="16.48100089"
       markerHeight="12.57971382"
       preserveAspectRatio="xMidYMid">
      <path
         id="path1149-2"
         style="fill:context-stroke;fill-rule:evenodd;stroke:#000000;stroke-width:0.625;stroke-linejoin:round;stroke-opacity:1"
         d="M 8.7185878,4.0337352 -2.2072895,0.01601326 8.7185884,-4.0017078 c -1.7454984,2.3720609 -1.7354408,5.6174519 -6e-7,8.035443 z"
         transform="matrix(-1.1,0,0,-1.1,-1.1,0)" />
    </marker>
    <marker
       inkscape:isstock="true"
       inkscape:stockid="Arrow2Lend"
       orient="auto"
       refY="0"
       refX="0"
       id="marker1151-6"
       style="overflow:visible"
       viewBox="0 0 12.480795 9.5264135"
       markerWidth="16.48100089"
       markerHeight="12.57971382"
       preserveAspectRatio="xMidYMid">
      <path
         id="path1149-1"
         style="fill:context-stroke;fill-rule:evenodd;stroke:#000000;stroke-width:0.625;stroke-linejoin:round;stroke-opacity:1"
         d="M 8.7185878,4.0337352 -2.2072895,0.01601326 8.7185884,-4.0017078 c -1.7454984,2.3720609 -1.7354408,5.6174519 -6e-7,8.035443 z"
         transform="matrix(-1.1,0,0,-1.1,-1.1,0)" />
    </marker>
    <marker
       inkscape:isstock="true"
       inkscape:stockid="Arrow2Lend"
       orient="auto"
       refY="0"
       refX="0"
       id="marker1"
       style="overflow:visible"
       viewBox="0 0 12.480795 9.5264135"
       markerWidth="16.48100089"
       markerHeight="12.57971382"
       preserveAspectRatio="xMidYMid">
      <path
         id="path1-7"
         style="fill:context-stroke;fill-rule:evenodd;stroke:#000000;stroke-width:0.625;stroke-linejoin:round;stroke-opacity:1"
         d="M 8.7185878,4.0337352 -2.2072895,0.01601326 8.7185884,-4.0017078 c -1.7454984,2.3720609 -1.7354408,5.6174519 -6e-7,8.035443 z"
         transform="matrix(-1.1,0,0,-1.1,-1.1,0)" />
    </marker>
    <marker
       inkscape:isstock="true"
       inkscape:stockid="Arrow2Lend"
       orient="auto"
       refY="0"
       refX="0"
       id="marker2"
       style="overflow:visible"
       viewBox="0 0 12.480795 9.5264135"
       markerWidth="16.48100089"
       markerHeight="12.57971382"
       preserveAspectRatio="xMidYMid">
      <path
         id="path2-6"
         style="fill:context-stroke;fill-rule:evenodd;stroke:#000000;stroke-width:0.625;stroke-linejoin:round;stroke-opacity:1"
         d="M 8.7185878,4.0337352 -2.2072895,0.01601326 8.7185884,-4.0017078 c -1.7454984,2.3720609 -1.7354408,5.6174519 -6e-7,8.035443 z"
         transform="matrix(-1.1,0,0,-1.1,-1.1,0)" />
    </marker>
    <marker
       inkscape:isstock="true"
       inkscape:stockid="Arrow2Lend"
       orient="auto"
       refY="0"
       refX="0"
       id="marker3"
       style="overflow:visible"
       viewBox="0 0 12.480795 9.5264135"
       markerWidth="16.48100089"
       markerHeight="12.57971382"
       preserveAspectRatio="xMidYMid">
      <path
         id="path3-5"
         style="fill:context-stroke;fill-rule:evenodd;stroke:#000000;stroke-width:0.625;stroke-linejoin:round;stroke-opacity:1"
         d="M 8.7185878,4.0337352 -2.2072895,0.01601326 8.7185884,-4.0017078 c -1.7454984,2.3720609 -1.7354408,5.6174519 -6e-7,8.035443 z"
         transform="matrix(-1.1,0,0,-1.1,-1.1,0)" />
    </marker>
    <marker
       inkscape:isstock="true"
       inkscape:stockid="Arrow2Lend"
       orient="auto"
       refY="0"
       refX="0"
       id="marker1275-3"
       style="overflow:visible"
       viewBox="0 0 12.480795 9.5264135"
       markerWidth="12.480795"
       markerHeight="9.5264139"
       preserveAspectRatio="xMidYMid">
      <path
         id="path1273-8"
         style="fill:context-stroke;fill-rule:evenodd;stroke:#000000;stroke-width:0.625;stroke-linejoin:round;stroke-opacity:1"
         d="M 8.7185878,4.0337352 -2.2072895,0.01601326 8.7185884,-4.0017078 c -1.7454984,2.3720609 -1.7354408,5.6174519 -6e-7,8.035443 z"
         transform="matrix(-1.1,0,0,-1.1,-1.1,0)" />
    </marker>
    <marker
       inkscape:isstock="true"
       inkscape:stockid="Arrow2Lend"
       orient="auto"
       refY="0"
       refX="0"
       id="marker1151-0"
       style="overflow:visible"
       viewBox="0 0 12.480795 9.5264135"
       markerWidth="7.31049898"
       markerHeight="5.58"
       preserveAspectRatio="xMidYMid">
      <path
         id="path1149-24"
         style="fill:context-stroke;fill-rule:evenodd;stroke:#000000;stroke-width:0.625;stroke-linejoin:round;stroke-opacity:1"
         d="M 8.7185878,4.0337352 -2.2072895,0.01601326 8.7185884,-4.0017078 c -1.7454984,2.3720609 -1.7354408,5.6174519 -6e-7,8.035443 z"
         transform="matrix(-1.1,0,0,-1.1,-1.1,0)" />
    </marker>
    <marker
       inkscape:isstock="true"
       inkscape:stockid="Arrow2Lend"
       orient="auto"
       refY="0"
       refX="0"
       id="marker2-0"
       style="overflow:visible"
       viewBox="0 0 12.480795 9.5264135"
       markerWidth="16.48100089"
       markerHeight="12.57971382"
       preserveAspectRatio="xMidYMid">
      <path
         id="path2-6-1"
         style="fill:context-stroke;fill-rule:evenodd;stroke:#000000;stroke-width:0.625;stroke-linejoin:round;stroke-opacity:1"
         d="M 8.7185878,4.0337352 -2.2072895,0.01601326 8.7185884,-4.0017078 c -1.7454984,2.3720609 -1.7354408,5.6174519 -6e-7,8.035443 z"
         transform="matrix(-1.1,0,0,-1.1,-1.1,0)" />
    </marker>
  </defs>
  <g
     inkscape:label="Layer 1"
     inkscape:groupmode="layer"
     id="layer1"
     style="display:inline">
    <text
       xml:space="preserve"
       style="font-size:2.82223px;line-height:1.25;font-family:monospace;-inkscape-font-specification:monospace;letter-spacing:0px;word-spacing:0px;stroke-width:0.264583"
       x="149.39732"
       y="71.666641"
       id="text153107" />
    <rect
       style="fill:none;stroke:#1a1a1a;stroke-width:0.0999999"
       id="rect1"
       width="190.52734"
       height="47.201862"
       x="10.648202"
       y="26.753727" />
    <path
       style="fill:none;stroke:#abc837;stroke-width:0.399999;stroke-dasharray:none;stroke-opacity:1;marker-end:url(#marker1151-0)"
       d="m 67.375181,70.418027 c 0,0 -7.488022,-0.459117 -8.636871,-3.822958 -1.102961,-3.229476 1.417235,-9.658447 1.417235,-9.658447"
       id="path56"
       sodipodi:nodetypes="csc" />
    <text
       xml:space="preserve"
       transform="scale(0.26458333)"
       id="text14"
       style="font-style:italic;font-size:8px;line-height:1.55;font-family:sans-serif;-inkscape-font-specification:'sans-serif Italic';text-align:center;white-space:pre;shape-inside:url(#rect14);display:inline;fill:#dde9af;stroke:#ff8080;stroke-width:0.377953" />
    <rect
       style="fill:#cdde87;stroke:#000000;stroke-width:0.2;stroke-miterlimit:4;stroke-dasharray:none;stroke-opacity:1"
       id="rect21"
       width="6.926466"
       height="5.2323933"
       x="64.994659"
       y="42.080448"
       ry="1.8022404"
       rx="1.8022404" />
    <rect
       style="fill:#ffb380;stroke:#000000;stroke-width:0.2;stroke-miterlimit:4;stroke-dasharray:none;stroke-opacity:1"
       id="rect30"
       width="7.6347413"
       height="4.6252995"
       x="100.97195"
       y="28.52203"
       ry="1.8022405"
       rx="1.8022403" />
    <rect
       style="fill:#ddafe9;stroke:#000000;stroke-width:0.2;stroke-miterlimit:4;stroke-dasharray:none;stroke-opacity:1"
       id="rect34"
       width="4.5992746"
       height="6.6489449"
       x="140.45711"
       y="51.591576"
       ry="1.8022405"
       rx="1.8022404" />
    <path
       style="fill:none;stroke:#ddafe9;stroke-width:0.4;stroke-dasharray:none;stroke-opacity:1;marker-end:url(#marker1151-0)"
       d="m 141.44849,57.805496 c 0,0 -1.29858,0.39678 -2.25288,2.165105 -0.84245,1.561082 0.16766,4.858802 0.16766,4.858802"
       id="path44"
       sodipodi:nodetypes="csc" />
    <path
       style="fill:none;stroke:#abc837;stroke-width:0.4;stroke-dasharray:none;stroke-opacity:1;marker-end:url(#marker1151-0)"
       d="m 67.984105,47.228682 c 0,0 -1.585459,4.360087 -1.179202,9.955945 0.374636,5.160294 4.075163,9.23475 4.075163,9.23475"
       id="path45"
       sodipodi:nodetypes="csc" />
    <rect
       style="fill:#cdde87;stroke:#000000;stroke-width:0.2;stroke-miterlimit:4;stroke-dasharray:none;stroke-opacity:1"
       id="rect2"
       width="6.926466"
       height="5.2323933"
       x="57.023304"
       y="51.31007"
       ry="1.8022404"
       rx="1.8022404" />
    <rect
       style="fill:#cdde87;stroke:#000000;stroke-width:0.2;stroke-miterlimit:4;stroke-dasharray:none;stroke-opacity:1"
       id="rect3"
       width="6.926466"
       height="5.2323933"
       x="72.560074"
       y="56.663349"
       ry="1.8022404"
       rx="1.8022404" />
    <rect
       style="fill:#cdde87;stroke:#000000;stroke-width:0.2;stroke-miterlimit:4;stroke-dasharray:none;stroke-opacity:1"
       id="rect4"
       width="6.926466"
       height="5.2323933"
       x="67.602142"
       y="66.974556"
       ry="1.8022404"
       rx="1.8022404" />
    <rect
       style="fill:#ffb380;stroke:#000000;stroke-width:0.2;stroke-miterlimit:4;stroke-dasharray:none;stroke-opacity:1"
       id="rect5"
       width="7.6347413"
       height="4.6252995"
       x="98.341217"
       y="36.763084"
       ry="1.8022405"
       rx="1.8022403" />
    <rect
       style="fill:#ffb380;stroke:#000000;stroke-width:0.2;stroke-miterlimit:4;stroke-dasharray:none;stroke-opacity:1"
       id="rect6"
       width="7.6347413"
       height="4.6252995"
       x="92.37146"
       y="45.970669"
       ry="1.8022405"
       rx="1.8022403" />
    <rect
       style="fill:#ffb380;stroke:#000000;stroke-width:0.2;stroke-miterlimit:4;stroke-dasharray:none;stroke-opacity:1"
       id="rect7"
       width="7.6347413"
       height="4.6252995"
       x="108.64425"
       y="38.483181"
       ry="1.8022405"
       rx="1.8022403" />
    <rect
       style="fill:#ffb380;stroke:#000000;stroke-width:0.2;stroke-miterlimit:4;stroke-dasharray:none;stroke-opacity:1"
       id="rect8"
       width="7.6347413"
       height="4.6252995"
       x="108.23952"
       y="47.883751"
       ry="1.8022405"
       rx="1.8022403" />
    <rect
       style="fill:#ffb380;stroke:#000000;stroke-width:0.2;stroke-miterlimit:4;stroke-dasharray:none;stroke-opacity:1"
       id="rect9"
       width="7.6347413"
       height="4.6252995"
       x="97.851616"
       y="56.390003"
       ry="1.8022405"
       rx="1.8022403" />
    <rect
       style="fill:#ddafe9;stroke:#000000;stroke-width:0.2;stroke-miterlimit:4;stroke-dasharray:none;stroke-opacity:1"
       id="rect10"
       width="4.5992746"
       height="6.6489449"
       x="137.72517"
       y="64.860329"
       ry="1.8022405"
       rx="1.8022404" />
    <rect
       style="fill:#ddafe9;stroke:#000000;stroke-width:0.2;stroke-miterlimit:4;stroke-dasharray:none;stroke-opacity:1"
       id="rect11"
       width="4.5992746"
       height="6.6489449"
       x="149.77962"
       y="64.759148"
       ry="1.8022405"
       rx="1.8022404" />
    <path
       style="fill:none;stroke:#abc837;stroke-width:0.4;stroke-dasharray:none;marker-end:url(#marker1151-0)"
       d="m 76.24815,61.863225 c 0,0 1.836115,1.451914 2.354059,3.573444 0.71694,2.936632 -3.911394,3.960741 -3.911394,3.960741"
       id="path11"
       sodipodi:nodetypes="csc" />
    <path
       style="fill:none;stroke:#abc837;stroke-width:0.4;stroke-dasharray:none;marker-end:url(#marker1151-0)"
       d="m 64.207463,54.072192 c 0,0 3.191837,-1.767435 5.187162,0.335613 1.04482,1.101228 3.070181,3.252465 3.070181,3.252465"
       id="path12"
       sodipodi:nodetypes="csc" />
    <path
       style="fill:none;stroke:#ddafe9;stroke-width:0.4;stroke-dasharray:none;stroke-opacity:1;marker-end:url(#marker1151-0)"
       d="m 142.30474,67.085397 c 0,0 0.39678,1.29858 2.16511,2.25288 1.56108,0.84245 4.8588,-0.16766 4.8588,-0.16766"
       id="path13"
       sodipodi:nodetypes="csc" />
    <path
       style="fill:none;stroke:#ddafe9;stroke-width:0.4;stroke-dasharray:none;stroke-opacity:1;marker-end:url(#marker1151-0)"
       d="m 149.71656,66.974173 c 0,0 -0.39678,-1.29858 -2.16511,-2.25288 -1.56108,-0.84245 -4.8588,0.16766 -4.8588,0.16766"
       id="path14"
       sodipodi:nodetypes="csc" />
    <path
       style="fill:none;stroke:#ffb380;stroke-width:0.4;stroke-dasharray:none;stroke-opacity:1;marker-end:url(#marker1151-0)"
       d="m 95.457359,50.491509 c 0,0 -0.32565,-0.23144 0.950923,2.556427 0.782734,1.709393 2.126884,3.373718 2.126884,3.373718"
       id="path15"
       sodipodi:nodetypes="csc" />
    <path
       style="fill:none;stroke:#ffb380;stroke-width:0.4;stroke-dasharray:none;stroke-opacity:1;marker-end:url(#marker1151-0)"
       d="m 108.19247,32.681336 c 0,0 1.50192,0.910794 2.06777,2.074151 0.82234,1.690698 1.16233,3.526016 1.16233,3.526016"
       id="path16"
       sodipodi:nodetypes="csc" />
    <path
       style="fill:none;stroke:#ffb380;stroke-width:0.4;stroke-dasharray:none;stroke-opacity:1;marker-end:url(#marker1151-0)"
       d="m 111.66994,43.189888 c 0,0 -0.45511,0.938269 0.16405,2.074151 0.94925,1.741464 1.26386,2.383782 1.26386,2.383782"
       id="path17"
       sodipodi:nodetypes="csc" />
    <path
       style="fill:none;stroke:#ffb380;stroke-width:0.4;stroke-dasharray:none;stroke-opacity:1;marker-end:url(#marker1151-0)"
       d="m 102.40516,33.214378 c 0,0 -0.67418,0.186122 -0.26746,1.414194 0.54312,1.639932 0.68004,2.079186 0.68004,2.079186"
       id="path18"
       sodipodi:nodetypes="csc" />
    <path
       style="fill:none;stroke:#ffb380;stroke-width:0.4;stroke-dasharray:none;stroke-opacity:1;marker-end:url(#marker1151-0)"
       d="m 98.978456,41.235399 c 0,0 -1.53641,0.683599 -1.58738,1.591874 -0.0371,0.661332 0.68005,2.916825 0.68005,2.916825"
       id="path19"
       sodipodi:nodetypes="csc" />
    <path
       style="fill:none;stroke:#ffb380;stroke-width:0.4;stroke-dasharray:none;stroke-opacity:1;marker-end:url(#marker1151-0)"
       d="m 111.84762,52.606972 c 0,0 -0.45257,1.849964 -1.58738,3.013321 -1.3128,1.345827 -4.37116,2.307633 -4.37116,2.307633"
       id="path20"
       sodipodi:nodetypes="csc" />
    <path
       style="fill:none;stroke:#ffb380;stroke-width:0.4;stroke-dasharray:none;stroke-opacity:1;marker-end:url(#marker1151-0)"
       d="m 101.23738,56.297511 c 0,0 0.49318,-5.858573 2.57731,-8.749873 1.58087,-2.193113 5.13265,-4.642867 5.13265,-4.642867"
       id="path21"
       sodipodi:nodetypes="csc" />
    <path
       style="display:inline;fill:#cccccc;fill-opacity:1;stroke:#000000;stroke-width:0.299999"
       d="m 75.039829,48.940778 7.049797,-2.740606 -0.598366,-1.548955 8.649864,0.08181 -6.238942,5.857799 -0.564407,-1.487132 -7.231426,2.802097 z"
       id="path56-1"
       sodipodi:nodetypes="cccccccc" />
    <path
       style="display:inline;fill:#cccccc;fill-opacity:1;stroke:#000000;stroke-width:0.299999"
       d="m 92.729353,66.029219 11.348217,-0.01609 v -1.660513 l 12.06165,3.193295 -11.8987,3.216053 0.0141,-1.590606 -11.635659,0.008 z"
       id="path22"
       sodipodi:nodetypes="cccccccc" />
    <path
       style="display:inline;fill:#cccccc;fill-opacity:1;stroke:#000000;stroke-width:0.299999"
       d="m 134.64985,50.909734 -7.42852,-2.999254 0.38251,-0.950773 -8.63505,-1.349634 7.0519,4.97655 0.35713,-0.914479 7.61864,3.070349 z"
       id="path23"
       sodipodi:nodetypes="cccccccc" />
    <path
       style="display:inline;fill:#cccccc;fill-opacity:1;stroke:#000000;stroke-width:0.299999"
       d="m 121.57128,52.335254 4.55483,1.58062 0.40242,-1.150544 4.06315,3.904423 -5.55109,0.559373 0.39114,-1.100126 -4.66816,-1.626517 z"
       id="path24"
       sodipodi:nodetypes="cccccccc" />
  </g>
</svg>
